<?xml version="1.0" encoding="utf-8"?>
<!-- Generator: Adobe Illustrator 28.0.0, SVG Export Plug-In . SVG Version: 6.00 Build 0)  -->
<svg version="1.1" id="Слой_1" xmlns="http://www.w3.org/2000/svg" xmlns:xlink="http://www.w3.org/1999/xlink" x="0px" y="0px"
	 viewBox="0 0 1000 971.5525513" enable-background="new 0 0 1000 971.5525513" xml:space="preserve">
<radialGradient id="SVGID_1_" cx="500.0429688" cy="485.7910156" r="499.9299622" gradientTransform="matrix(1 0 0 0.9714 0 13.8936234)" gradientUnits="userSpaceOnUse">
	<stop  offset="0" style="stop-color:#FEC700"/>
	<stop  offset="1" style="stop-color:#FFDB51"/>
</radialGradient>
<path fill-rule="evenodd" clip-rule="evenodd" fill="url(#SVGID_1_)" d="M499.9273376,971.366333
	c272.1054382,3.9185791,495.9205627-213.4696655,500.0506897-485.5931091
	C995.8479004,213.6515656,772.0327759-3.6826887,499.9273376,0.2152034
	C227.8056946-3.6826887,4.2569551,213.6515656,0.1079634,485.7732239
	C4.2569551,757.8966675,227.8056946,975.2849121,499.9273376,971.366333z"/>
<radialGradient id="SVGID_00000069359420717533473530000017926323110763257007_" cx="500" cy="485.7762756" r="499.9884949" gradientTransform="matrix(1 0 0 0.9716 0 13.7960463)" gradientUnits="userSpaceOnUse">
	<stop  offset="0" style="stop-color:#050007"/>
	<stop  offset="0.48" style="stop-color:#050007"/>
	<stop  offset="1" style="stop-color:#50504F"/>
</radialGradient>
<path fill-rule="evenodd" clip-rule="evenodd" fill="url(#SVGID_00000069359420717533473530000017926323110763257007_)" d="
	M715.1088257,847.6903687c-169.760376,95.2045288-353.8153992,112.1397705-471.350647,55.2149048
	c156.298172,90.3634033,348.7052002,91.520813,506.2300415,3.4370728
	c155.7824707-85.6276245,251.6808472-250.0257568,249.9898071-427.6539307
	C992.1254883,606.0687866,884.6522217,752.2509766,715.1088257,847.6903687L715.1088257,847.6903687z M776.0026855,98.3231049
	v0.2501984V98.3231049c-10.1303711-16.6463699-24.0551758-30.8744354-40.7753296-41.1830177
	c62.0521851,31.889637,116.5911255,76.5475464,159.9836426,131.0307312
	c7.6032104,9.3473816,14.6897583,18.8909607,21.348877,28.9529419
	c17.9117432,30.6422424,26.2466431,65.7565765,24.5015259,101.3127899
	c-4.380249,129.3216248-122.4312134,286.1012878-308.4302368,390.3885803
	c-185.977417,104.2692871-384.7249146,125.3670654-502.2241821,64.2769775
	c-32.3693314-16.1846313-59.3809814-40.9697266-78.2728424-71.880127l-0.7649994-1.2294312
	c-4.91399-9.5795288-9.294281-19.1411133-13.4423752-28.9501953C10.4174423,606.994873-2.3508315,537.8372192,0.3554629,468.3762512
	c1.0160979,19.6595459,6.5897865,38.765625,16.4708672,55.6972961
	c60.110878,101.083252,278.7105408,87.8173218,488.2463074-29.6828613
	C714.8765869,376.6079407,836.1135254,199.4595032,776.0026855,98.3231049L776.0026855,98.3231049z M563.510437,35.7732315
	c-1.9575195-2.706295-3.987915-5.4134903-6.1586914-7.5842857C528.8803101,5.1318936,491.824646-4.4125872,455.750946,1.9072
	c-6.8373108,0.5174989-14.2613831,1.2473975-21.5801697,2.4560952
	C369.3934021,12.4839783,307.09375,33.3171349,250.1157532,65.2418747
	c-56.6584778,31.4081345-106.4607849,73.8565445-146.4855042,124.4265366
	c-4.3802872,5.5898895-8.5310822,11.2526855-12.7691727,16.8965759
	c-23.7869492,26.9936371-33.8462296,63.3175812-27.4373436,98.6074066c0.943203,2.9546814,2.2085991,6.1793823,3.6503944,8.8658752
	c34.3466263,57.9040833,173.4980469,42.7346191,310.4039612-34.3466492
	C514.6171265,202.9136963,597.8588257,93.6953125,563.510437,35.7732315z"/>
</svg>
