<?xml version="1.0" encoding="utf-8"?>
<!-- Generator: Adobe Illustrator 28.0.0, SVG Export Plug-In . SVG Version: 6.00 Build 0)  -->
<svg version="1.1" id="Слой_1" xmlns="http://www.w3.org/2000/svg" xmlns:xlink="http://www.w3.org/1999/xlink" x="0px" y="0px"
	 viewBox="0 0 1000 177.3026276" enable-background="new 0 0 1000 177.3026276" xml:space="preserve">
<g id="Page-1">
	<g id="megafon-logo-green">
		<g id="Group">
			<path id="Shape" fill="#00B956" d="M99.671051,0.3289472v91.4473648l0,0l0,0
				c0,4.2763138-3.2894745,7.2368469-7.2368469,7.2368469H81.5789413l0,0c-0.6578903,0-0.9868393,0.6578979-0.9868393,0.9868393
				v76.6447296c2.6315765,0,5.2631607,0.6578979,8.2236862,0.6578979c49.0131607,0,88.8157883-39.8026276,88.8157883-88.8157883
				C177.6315765,43.4210548,143.75,5.5921049,99.671051,0.3289472z M97.6973724,137.171051
				c-6.25,0-10.8552628-5.2631531-10.8552628-10.8552628c0-6.2500076,5.2631607-10.8552628,10.8552628-10.8552628
				c6.25,0,10.8552628,5.2631531,10.8552628,10.8552628C109.2105255,132.2368469,103.9473724,137.171051,97.6973724,137.171051z
				 M123.6842041,137.171051c-6.25,0-10.8552628-5.2631531-10.8552628-10.8552628
				c0-6.2500076,5.2631531-10.8552628,10.8552628-10.8552628c6.25,0,10.8552551,5.2631531,10.8552551,10.8552628
				S130.2631531,137.171051,123.6842041,137.171051z M150,137.171051c-6.2500153,0-10.8552704-5.2631531-10.8552704-10.8552628
				c0-6.2500076,5.2631531-10.8552628,10.8552704-10.8552628c6.25,0,10.8552551,5.2631531,10.8552551,10.8552628
				S156.25,137.171051,150,137.171051z"/>
			<path id="Shape_1_" fill="#00B956" d="M88.8157883,0C39.8026314,0,0,39.8026352,0,88.8157883
				c0,43.0921097,29.9342117,78.2894821,70.0657883,86.5131607V95.3947372l0,0c0-3.6184235,3.2894745-6.578949,6.578949-7.2368469
				l0,0h3.6184158H87.5c0.6578979,0,0.9868393-0.6578979,0.9868393-0.9868393L88.8157883,0L88.8157883,0z M71.7105255,73.0263138
				c-6.25,0-10.8552628-5.2631607-10.8552628-10.8552628c0-6.2499962,5.2631607-10.8552589,10.8552628-10.8552589
				c6.25,0,10.8552551,5.2631607,10.8552551,10.8552589S77.6315765,73.0263138,71.7105255,73.0263138z"/>
		</g>
		<g id="Group_1_" transform="translate(67.000000, 10.000000)">
			<polygon id="Shape_2_" fill="#00B956" points="910.9605103,38.3552628 910.9605103,71.9078979 866.2236938,71.9078979 
				866.2236938,38.3552628 843.5263062,38.3552628 843.5263062,127.171051 866.2236938,127.171051 866.2236938,91.3157883 
				910.9605103,91.3157883 910.9605103,127.171051 933,127.171051 933,38.3552628 			"/>
			<path id="Shape_3_" fill="#00B956" d="M541.2236938,48.5526314
				c-3.6184082-7.8947372-10.8552856-12.1710548-18.0921021-12.1710548l0,0l0,0l0,0
				c-7.2368164,0-14.8026428,4.2763176-18.0921021,12.1710548l-35.8552856,78.9473724h23.6842041L500.7631531,108.75h46.0526428
				l7.8947144,18.7500076h23.6842041L541.2236938,48.5526314z M507.0131531,90.9868393L520.5,58.421051
				c0.6578979-0.9868431,0.9868774-0.9868431,1.6447144-0.9868431l0,0l0,0c0.6578979,0,1.6447754,0,1.6447754,0.9868431
				l13.4868164,32.5657883H507.0131531z"/>
			<path id="Shape_4_" fill="#00B956" d="M276.75,22.5657902c-10.5263062,0-17.1052551,5.592104-22.0394745,16.7763157
				l-28.6184235,66.7763214l-28.9473572-67.1052704c-4.6052704-10.8552628-11.5131683-16.7763138-22.0394745-16.7763138
				c-9.8684235,0-19.7368469,6.5789471-19.7368469,22.0394707v82.5657959h22.0394745V47.2368431l29.2763214,66.1184235
				c3.6184235,9.5394745,10.5263062,15.1315842,19.4078827,15.1315842l0,0l0,0l0,0l0,0
				c9.5394745,0,15.7894745-5.5921097,19.4078979-15.1315842l29.2763062-66.1184235v80.5921021h22.0394897V45.2631569
				C296.4868469,29.8026314,286.6184082,22.5657902,276.75,22.5657902z"/>
			<path id="Shape_5_" fill="#00B956" d="M335.6315918,108.421051c-0.9868469,0-2.3026428-0.9868393-2.3026428-2.3026276V90.3289413
				h55.2631531V72.2368393H333.328949V58.7499924c0-0.9868431,0.9868469-2.3026314,2.3026428-2.3026314h54.9342041V37.6973686
				h-65.7894592c-7.8947449,0-13.1578979,6.25-13.1578979,13.1578941v62.171051
				c0,6.578949,5.5921021,13.1578979,13.1578979,13.1578979h65.7894592v-18.75h-54.9342041V108.421051L335.6315918,108.421051z"/>
			<path id="Shape_6_" fill="#00B956" d="M427.7368469,127.171051V59.4078941c0-0.9868431,0.9868469-2.3026314,2.3026123-2.3026314
				h54.9342346v-18.75h-65.7894592c-7.8947449,0-13.1578979,6.25-13.1578979,13.1578941v75.328949L427.7368469,127.171051
				L427.7368469,127.171051L427.7368469,127.171051z"/>
			<path id="Shape_7_" fill="#00B956" d="M829.0526123,83.0921021c0-30.921051-13.4868774-45.3947372-47.0394897-45.3947372
				h-7.8947144c-33.5526123,0-47.0394897,14.8026314-47.0394897,45.3947372l0,0
				c0,30.2631531,13.4868774,45.3947449,47.0394897,45.3947449h7.2368164
				C815.5657959,127.828949,829.0526123,113.3552628,829.0526123,83.0921021L829.0526123,83.0921021z M781.3552246,109.7368393
				h-7.2368164c-18.0921021,0-25.6578979-8.2236786-25.6578979-26.6447372l0,0c0-17.7631531,6.25-26.6447372,25.6578979-26.6447372
				h7.2368164c18.75,0,25.6578979,8.8815765,25.6578979,26.6447372l0,0
				C807.0131226,101.1842117,800.1052856,109.7368393,781.3552246,109.7368393z"/>
			<path id="Shape_8_" fill="#00B956" d="M665.5657959,24.5394745h-44.0789185
				c-32.8947754,0-46.0526733,16.7763138-46.0526733,45.3947372c0,4.6052628,0.6578979,8.8815765,0.9868774,12.5
				c3.6184082,20.3947372,15.7894897,32.8947372,46.3815918,32.8947372h9.8684082v11.5131607h22.0394897V115.328949H664.25
				c30.9210205,0,43.0921631-12.5,46.3815918-32.8947372c0.6578979-3.6184235,0.9868774-7.8947372,0.9868774-12.5
				C711.2894897,41.3157883,697.8026123,24.5394745,665.5657959,24.5394745z M632.0131836,96.9078979h-9.8684692
				c-15.1315918,0-20.3947144-5.5921097-23.6842041-14.8026352c-0.9868164-3.2894745-0.9868164-7.8947372-0.9868164-12.5
				c0-18.75,8.8815308-26.6447372,21.3815918-26.6447372h13.4868164v53.9473648h-0.3289185V96.9078979z M688.5921021,83.0921021
				c-3.2894897,8.8815842-8.8815918,14.8026352-23.6842041,14.8026352h-9.8684082V43.6184196h13.4868164
				c12.500061,0,21.3815918,7.8947372,21.3815918,26.6447411C689.5789185,75.1973648,689.5789185,79.1447372,688.5921021,83.0921021
				z"/>
		</g>
	</g>
</g>
</svg>
