<?xml version="1.0" encoding="utf-8"?>
<!-- Generator: Adobe Illustrator 28.0.0, SVG Export Plug-In . SVG Version: 6.00 Build 0)  -->
<svg version="1.1" id="Слой_1" xmlns="http://www.w3.org/2000/svg" xmlns:xlink="http://www.w3.org/1999/xlink" x="0px" y="0px"
	 viewBox="0 0 1000 706.8009033" enable-background="new 0 0 1000 706.8009033" xml:space="preserve">
<g>
	<path fill-rule="evenodd" clip-rule="evenodd" fill="#00B956" d="M655.7619019,353.341156
		c-15.7744141,0-28.5666504-12.7922363-28.5666504-28.557373c0-15.7916565,12.7922363-28.5832214,28.5666504-28.5832214
		c15.7783813,0,28.5706177,12.7915649,28.5706177,28.5832214
		C684.3325195,340.5489197,671.5402832,353.341156,655.7619019,353.341156L655.7619019,353.341156z M588.7722778,353.341156
		c-15.7651978,0-28.5700073-12.7922363-28.5700073-28.557373c0-15.7916565,12.8048096-28.5832214,28.5700073-28.5832214
		c15.7876587,0,28.5818481,12.7915649,28.5818481,28.5832214C617.354126,340.5489197,604.5599365,353.341156,588.7722778,353.341156
		L588.7722778,353.341156z M521.7561035,353.341156c-15.7777405,0-28.5699463-12.7922363-28.5699463-28.557373
		c0-15.7916565,12.7922058-28.5832214,28.5699463-28.5832214c15.7783813,0,28.579895,12.7915649,28.579895,28.5832214
		C550.3359985,340.5489197,537.5344849,353.341156,521.7561035,353.341156L521.7561035,353.341156z M526.4159546,1.7293037
		v226.9012146v8.8174591v0.1503906l-0.0338135,0.0245209c-0.0921021,10.2453003-8.4119873,18.4565125-18.6572571,18.4565125
		h-8.7670898h-19.3655701v0.011261c-1.405304,0.0132446-2.5243835,1.1323242-2.5243835,2.5376282v197.6481628
		c6.9642639,0.6367188,14.0093384,0.9918518,21.1233521,0.9918518c126.2789001,0,228.6364441-102.3721313,228.6364441-228.6377869
		C726.8276367,111.9111252,639.3719482,15.6313152,526.4159546,1.7293037z"/>
	<path fill-rule="evenodd" clip-rule="evenodd" fill="#00B956" d="M454.3742065,188.5245819
		c-15.7784119,0-28.5706177-12.8034668-28.5706177-28.5686188c0-15.7784119,12.7922058-28.5818787,28.5706177-28.5818787
		c15.7744446,0,28.5666504,12.8034668,28.5666504,28.5818787
		C482.9408569,175.7211151,470.1486511,188.5245819,454.3742065,188.5245819L454.3742065,188.5245819z M498.20047,0
		C371.9367676,0,269.5779114,102.3588791,269.5779114,228.6338348c0,109.5695953,77.1030884,201.1650543,180.0258179,223.4319916
		V246.914093l0.0152283-0.022522c0.210022-9.8888397,8.0946045-17.8800812,17.9343872-18.2444916l0.0238647-0.0132446h9.4906311
		h19.3410339c1.3450317,0,2.4508362-1.0740356,2.5356445-2.4057922l0.0132751-226.1816559h3.1365967
		C500.8076782,0.0238525,499.4984436,0,498.20047,0z"/>
	<polygon fill-rule="evenodd" clip-rule="evenodd" fill="#00B956" points="971.4320068,591.7982178 971.4320068,634.9188232 
		913.538147,634.9188232 913.538147,591.7982178 884.9542847,591.7982178 884.9542847,705.6871338 913.538147,705.6871338 
		913.538147,659.6518555 971.4320068,659.6518555 971.4320068,705.6871338 1000,705.6871338 1000,591.7982178 	"/>
	<path fill-rule="evenodd" clip-rule="evenodd" fill="#00B956" d="M452.6820068,658.8461914l17.5852356-41.3734741
		c0.5406494-1.284668,1.5583496-1.6173096,2.3117065-1.6173096h0.0132446c0.7791748,0,1.7823181,0.3326416,2.3229675,1.6173096
		l17.583252,41.3734741H452.6820068L452.6820068,658.8461914z M496.0411682,604.479126
		c-4.7705078-10.3354492-14.2816772-15.3967896-23.4489746-15.3967896h-0.0132446
		c-9.1560364,0-18.6685486,5.0613403-23.43573,15.3967896l-46.6845703,101.2039795h30.3635254l10.1856689-24.039917h59.1667175
		l10.1836548,24.039917h30.3621826L496.0411682,604.479126z"/>
	<path fill-rule="evenodd" clip-rule="evenodd" fill="#00B956" d="M156.3476105,571.1552124
		c-13.3699799,0-21.8892822,7.1259155-28.2280731,21.465271l-37.2303848,85.7171021l-37.2310448-85.7171021
		c-6.3122902-14.3393555-14.8561096-21.465271-28.2247543-21.465271C12.9366493,571.1552124,0,580.1105347,0,599.5701294
		v106.1096802h28.5229092v-103.208252l37.4563217,85.0015259c5.0255814,11.8586426,13.1221619,19.3185425,24.9099197,19.3278198
		h0.0125885c11.7778168-0.0092773,19.8730774-7.4691772,24.9099274-19.3278198l37.4563217-85.0015259v103.208252h28.5215759
		V599.5701294C181.789566,580.1105347,168.854248,571.1552124,156.3476105,571.1552124z"/>
	<path fill-rule="evenodd" clip-rule="evenodd" fill="#00B956" d="M231.7743988,681.6186523
		c-1.3675385,0-2.4415588-1.1290283-2.4415588-2.4508667v-20.3215942h71.1704559v-23.2230225H229.33284v-17.3242188
		c0-1.3224487,1.0740204-2.4435425,2.4415588-2.4435425h70.3912811v-24.0611572h-84.4324341
		c-9.8881683,0-16.9803009,8.2489624-16.9803009,16.9710083v79.9488525c0,8.7207031,7.0921326,16.9689941,16.9803009,16.9689941
		h84.4324341v-24.0644531H231.7743988z"/>
	<path fill-rule="evenodd" clip-rule="evenodd" fill="#00B956" d="M350.595459,705.6798096v-87.3808594
		c0-1.3224487,1.0852661-2.4435425,2.4548035-2.4435425h70.3886414v-24.0611572h-84.4317627
		c-9.8901672,0-16.9935608,8.2489624-16.9935608,16.9710083v96.9145508H350.595459z"/>
	<path fill-rule="evenodd" clip-rule="evenodd" fill="#00B956" d="M805.255249,683.2247314h-9.1203003
		c-23.824585,0-33.0157471-10.7263184-33.0157471-34.5768433v-0.1165771c0-23.1309204,8.0813599-34.4959717,33.0157471-34.4959717
		h9.1203003c24.2148438,0,32.9971924,11.3650513,32.9971924,34.4959717c0,0.0317993,0.0132446,0.0828247,0.0132446,0.1165771
		C838.265686,672.4984131,828.8956909,683.2247314,805.255249,683.2247314L805.255249,683.2247314z M866.0657349,648.531311
		c-0.0132446-39.8634644-17.1564941-58.4855957-60.3844604-58.4855957h-9.9730225
		c-43.2478027,0-60.3705444,18.6221313-60.3930664,58.4855957v0.0695801c0,39.260498,17.5004272,58.2000122,60.6315918,58.2000122
		h9.4866943c43.1206055,0,60.6322632-18.9395142,60.6322632-58.2000122V648.531311z"/>
	<path fill-rule="evenodd" clip-rule="evenodd" fill="#00B956" d="M685.2792969,648.5332642
		c-4.2576294,11.3173828-11.2219238,18.5148315-30.5404053,18.5148315h-13.0758057v-69.1893921h17.5627441
		c16.4594727,0,27.6813965,10.2811279,27.6813965,34.5787964
		C686.9072266,638.7027588,686.9185181,644.2020874,685.2792969,648.5332642L685.2792969,648.5332642z M613.1773071,667.0480957
		h-13.0718384c-19.3191528,0-26.2701416-7.1974487-30.5311279-18.5148315
		c-1.6531372-4.3311768-1.6286011-9.8305054-1.6286011-16.0957642c0-24.2976685,11.2219238-34.5787964,27.6728516-34.5787964
		h17.5587158V667.0480957L613.1773071,667.0480957z M655.6830444,573.8353271h-56.524353
		c-42.1758423,0-59.0375366,21.3452759-59.0375366,58.5643921c0,5.8187256,0.3419189,11.1994019,1.1813965,16.1335449
		c4.458374,26.3636475,19.9532471,42.5402222,59.4509277,42.5402222h12.4238281v14.6096191h28.4857788v-14.6096191h12.4404297
		c39.484436,0,54.979248-16.1765747,59.4376831-42.5402222c0.8400879-4.9341431,1.1912842-10.3148193,1.1912842-16.1335449
		C714.7324829,595.180603,697.8701172,573.8353271,655.6830444,573.8353271z"/>
</g>
</svg>
