<?xml version="1.0" encoding="utf-8"?>
<!-- Generator: Adobe Illustrator 28.0.0, SVG Export Plug-In . SVG Version: 6.00 Build 0)  -->
<svg version="1.1" id="Слой_1" xmlns="http://www.w3.org/2000/svg" xmlns:xlink="http://www.w3.org/1999/xlink" x="0px" y="0px"
	 viewBox="0 0 719.7030029 1000" style="enable-background:new 0 0 719.7030029 1000;" xml:space="preserve">
<style type="text/css">
	.st0{fill:#2FB5FF;}
</style>
<path class="st0" d="M359.8623047,1000c61.9061279,0,112.0937805-50.1752319,112.0937805-112.0671387
	c0-61.8961182-50.1876526-112.0713501-112.0937805-112.0713501c-61.9077454,0-112.0941925,50.1752319-112.0941925,112.0713501
	C247.7681122,949.8247681,297.9545593,1000,359.8623047,1000z"/>
<path class="st0" d="M549.5480957,85.0578461c0,110.3458862-78.7544861,188.5070343-189.6974487,188.5070343
	c-110.3696136,0-189.6974335-77.5865631-189.6974335-188.5070343V0H0v85.0578461
	c0,185.6336823,105.7708588,316.0942383,270.7503052,347.7022705v110.3463135C105.7708588,574.7149048,0,703.4528809,0,887.9370117
	v83.9086304h170.1532135v-83.9086304c0-112.0712891,76.4536438-187.3590698,189.6974335-187.3590698
	c113.242981,0,189.6974487,75.2877808,189.6974487,187.3590698v83.9086304h170.1549072v-83.9086304
	c0-184.4841309-105.7713013-313.2221069-270.7511292-344.8305664V432.7601318
	c165.5548401-31.6080627,270.7511292-161.4940186,270.7511292-347.7022705V0H549.5480957V85.0578461z"/>
</svg>
